<svg xmlns="http://www.w3.org/2000/svg" xmlns:xlink="http://www.w3.org/1999/xlink" width="400" height="425" viewBox="0 0 400 425"><defs><radialGradient id="a" cx="0.25" cy="0.75" r="0.5" gradientTransform="translate(0.002 0) rotate(90)" gradientUnits="objectBoundingBox"><stop offset="0.339" stop-color="#ffbd69"/><stop offset="1" stop-color="#f9920f"/></radialGradient></defs><path d="M0,5A5,5,0,0,1,5,0H400V425L4.331,371.585A5,5,0,0,1,0,366.63Z" fill="url(#a)"/><path d="M67.794,72.3h-1V1h1Z" fill="#c7c7c7"/><path d="M92.059,96.17l-1.992,4.377H44.515L42.529,96.17l19.393-13.42H72.665Z" fill="#ebebeb"/><path d="M74.011,69.819l-1.345,12.93H61.922l-1.345-12.93Z" fill="#dbdbdb"/><path d="M92.056,96.171l-1.992,4.378H44.513l-1.986-4.378Z" fill="#dbdbdb"/><path d="M120.967,58.179h-1V1h1Z" fill="#c7c7c7"/><path d="M145.232,82.046l-1.992,4.378H97.689L95.7,82.046,115.1,68.626h10.746Z" fill="#ebebeb"/><path d="M127.185,55.7l-1.346,12.93H115.1L113.751,55.7Z" fill="#dbdbdb"/><path d="M145.23,82.048l-1.991,4.378H97.687L95.7,82.048Z" fill="#dbdbdb"/><path d="M201.658,127.534l.155,60.371a6.11,6.11,0,0,1-6.091,6.129l-95.774.248a6.109,6.109,0,0,1-6.122-6.1l-.156-60.371a5.685,5.685,0,0,1,5.672-5.7l96.615-.251a5.686,5.686,0,0,1,5.7,5.67Z" fill="#dbdbdb"/><path d="M186.227,179.437a5.622,5.622,0,1,1-1.658-3.967A5.614,5.614,0,0,1,186.227,179.437Z" fill="#a6a6a6"/><path d="M193.152,179.419a5.622,5.622,0,1,1-1.657-3.969A5.62,5.62,0,0,1,193.152,179.419Z" fill="#ffc727"/><path d="M119.758,132.427l-13.731.035a3.271,3.271,0,0,0-3.262,3.278l.02,7.468a3.268,3.268,0,0,0,3.278,3.26l13.731-.035a3.269,3.269,0,0,0,3.261-3.278l-.019-7.468A3.269,3.269,0,0,0,119.758,132.427Z" fill="#ffc727"/><path d="M189.205,139.929l-9.171.024a3.841,3.841,0,1,1-.021-7.682l9.171-.026a3.842,3.842,0,0,1,.021,7.684Z" fill="#fff"/><path d="M102.082,159.249l-.83.489a.214.214,0,0,1-.1.034.207.207,0,0,1-.177-.1.205.205,0,0,1-.028-.076.18.18,0,0,1,.006-.08.2.2,0,0,1,.037-.072.2.2,0,0,1,.063-.049l1.132-.692a.211.211,0,0,1,.154-.015.208.208,0,0,1,.124.093.254.254,0,0,1,.026.151l.014,5.4a.205.205,0,0,1-.058.144.2.2,0,0,1-.066.044.208.208,0,0,1-.078.015.2.2,0,0,1-.2-.2Z" fill="#f8f8f8"/><path d="M103.942,164.166l2.74-2.485a1.528,1.528,0,0,0,.369-.51,1.509,1.509,0,0,0-1.384-2.116,1.532,1.532,0,0,0-1.024.389l-.285.262a.2.2,0,0,1-.142.047.2.2,0,0,1-.136-.062.2.2,0,0,1,0-.279l.286-.269a1.972,1.972,0,0,1,1.3-.5,1.922,1.922,0,0,1,1.76,2.69,1.954,1.954,0,0,1-.462.65l-2.347,2.131,2.781-.007a.206.206,0,0,1,0,.411l-3.276.008h-.033a.2.2,0,0,1-.083-.012.19.19,0,0,1-.069-.046.221.221,0,0,1-.058-.153A.217.217,0,0,1,103.942,164.166Z" fill="#f8f8f8"/><path d="M112.442,158.995l-1.516,1.567a2,2,0,0,1-.4,3.948,1.956,1.956,0,0,1-1.4-.584.2.2,0,0,1-.051-.068.2.2,0,0,1-.019-.081.21.21,0,0,1,.014-.083.218.218,0,0,1,.046-.07.221.221,0,0,1,.07-.047.213.213,0,0,1,.083-.014.2.2,0,0,1,.082.019.2.2,0,0,1,.067.049,1.574,1.574,0,1,0,1.111-2.691.216.216,0,0,1-.094-.022.232.232,0,0,1-.075-.061h-.007a.189.189,0,0,1-.047-.069.206.206,0,0,1,0-.164.181.181,0,0,1,.047-.069l1.457-1.507-2.251,0a.21.21,0,0,1-.21-.21.208.208,0,0,1,.21-.21l2.747-.007a.224.224,0,0,1,.081.015.21.21,0,0,1,.068.046.2.2,0,0,1,.046.068.205.205,0,0,1,.016.081.169.169,0,0,1-.025.093A.177.177,0,0,1,112.442,158.995Z" fill="#f8f8f8"/><path d="M117.39,163.287l-3.184.008h-.026a.175.175,0,0,1-.125-.042.18.18,0,0,1-.053-.06.21.21,0,0,1-.024-.077.193.193,0,0,1,.01-.079.184.184,0,0,1,.04-.069l3.392-4.242.008-.008a.19.19,0,0,1,.06-.053.209.209,0,0,1,.077-.024.2.2,0,0,1,.08.01.21.21,0,0,1,.069.041.252.252,0,0,1,.067.1c0,.017.009.025.009.034v.025l.01,4.031h.395a.2.2,0,1,1,0,.4H117.8V164.3a.207.207,0,0,1-.206.193.206.206,0,0,1-.141-.056.211.211,0,0,1-.065-.137Zm0-.4-.009-3.444-2.771,3.451Z" fill="#f8f8f8"/><path d="M124.759,163.894a.222.222,0,0,1-.046-.067.205.205,0,0,1-.017-.08.209.209,0,0,1,.063-.147.221.221,0,0,1,.07-.047.21.21,0,0,1,.232.047,1.576,1.576,0,1,0,0-2.226.206.206,0,0,1-.067.046.2.2,0,0,1-.08.016.2.2,0,0,1-.08-.016.206.206,0,0,1-.067-.046.131.131,0,0,1-.051-.067V161.3a.041.041,0,0,1-.007-.011.032.032,0,0,1,0-.014.167.167,0,0,1-.008-.067.353.353,0,0,0,.008-.042l.279-2.369a.183.183,0,0,1,.021-.089.19.19,0,0,1,.062-.067.2.2,0,0,1,.135-.05l2.739-.007a.188.188,0,0,1,.081.015.218.218,0,0,1,.068.045.2.2,0,0,1,.045.068.205.205,0,0,1,.016.081.188.188,0,0,1-.014.081.2.2,0,0,1-.045.07.21.21,0,0,1-.15.06l-2.563.006-.205,1.748a1.981,1.981,0,0,1,2.986,1.714,1.97,1.97,0,0,1-.575,1.413,2.039,2.039,0,0,1-1.41.582,1.981,1.981,0,0,1-.764-.145A2.008,2.008,0,0,1,124.759,163.894Z" fill="#f8f8f8"/><path d="M130.349,159.864a2.388,2.388,0,0,1,2.055-1.282.205.205,0,0,1,.211.192.221.221,0,0,1-.2.22,1.99,1.99,0,0,0-1.712,1.07,3.856,3.856,0,0,0-.417,1.177,1.934,1.934,0,1,1-.483,1.346,2.814,2.814,0,0,1-.018-.389A4.851,4.851,0,0,1,130.349,159.864Zm-.136,2.688a.443.443,0,0,0,.017.108.134.134,0,0,1-.007.06,1.55,1.55,0,1,0-.01-.2Z" fill="#f8f8f8"/><path d="M135.835,164.159,138,159l-2.84.007a.2.2,0,0,1,0-.4l3.108-.009a.225.225,0,0,1,.126.008.222.222,0,0,1,.11.125.206.206,0,0,1,.017.068.174.174,0,0,1-.033.11l-2.263,5.415a.2.2,0,0,1-.073.089.21.21,0,0,1-.111.037.163.163,0,0,1-.084-.017.22.22,0,0,1-.11-.111A.224.224,0,0,1,135.835,164.159Z" fill="#f8f8f8"/><path d="M141.629,158.55a1.222,1.222,0,0,1,1.168.839,1.22,1.22,0,0,1-.44,1.368,1.9,1.9,0,1,1-1.453,0,1.241,1.241,0,0,1-.49-.99,1.213,1.213,0,0,1,.092-.465,1.215,1.215,0,0,1,.657-.659A1.222,1.222,0,0,1,141.629,158.55Zm.014,5.476a1.5,1.5,0,0,0,1.471-1.8,1.5,1.5,0,0,0-.413-.769,1.5,1.5,0,0,0-2.565,1.071,1.483,1.483,0,0,0,.114.576,1.5,1.5,0,0,0,.816.812A1.519,1.519,0,0,0,141.643,164.026Zm-.009-3.423a.837.837,0,0,0,.821-.833.819.819,0,0,0-1.634,0,.83.83,0,0,0,.813.825Z" fill="#f8f8f8"/><path d="M152.081,158.523a1.931,1.931,0,0,1,1.937,1.712c.009.016.009.025.017.042.009.159.018.327.018.5a4.869,4.869,0,0,1-.556,2.345,2.434,2.434,0,0,1-2.055,1.282h-.009a.187.187,0,0,1-.078-.011.206.206,0,0,1-.068-.041.2.2,0,0,1-.047-.064.2.2,0,0,1-.018-.077.215.215,0,0,1,.057-.15.209.209,0,0,1,.145-.068,2,2,0,0,0,1.712-1.072,3.73,3.73,0,0,0,.417-1.176,1.947,1.947,0,0,1-3.238-.469,1.946,1.946,0,0,1,1.767-2.753Zm1.543,1.927a1.534,1.534,0,0,0-1.832-1.5,1.534,1.534,0,1,0,.886,2.924,1.523,1.523,0,0,0,.945-1.419Z" fill="#f8f8f8"/><path d="M155.53,161.454a3.727,3.727,0,0,1,.557-2.059,1.666,1.666,0,0,1,2.94-.008,3.821,3.821,0,0,1,.577,2.056,3.769,3.769,0,0,1-.567,2.051,1.659,1.659,0,0,1-2.939.008A3.691,3.691,0,0,1,155.53,161.454Zm.411,0a3.333,3.333,0,0,0,.5,1.821,1.262,1.262,0,0,0,.463.514,1.252,1.252,0,0,0,1.789-.519,3.547,3.547,0,0,0-.01-3.645,1.251,1.251,0,0,0-2.251.005,3.324,3.324,0,0,0-.491,1.822Z" fill="#f8f8f8"/><path d="M162.315,159.093l-.83.489a.2.2,0,0,1-.1.033.191.191,0,0,1-.1-.026.2.2,0,0,1-.075-.073.189.189,0,0,1-.028-.076.2.2,0,0,1,.042-.152.2.2,0,0,1,.063-.05l1.133-.691a.211.211,0,0,1,.154-.016.217.217,0,0,1,.123.093.235.235,0,0,1,.025.151l.014,5.4a.194.194,0,0,1-.057.143.2.2,0,0,1-.065.044.208.208,0,0,1-.078.015.2.2,0,0,1-.142-.059.2.2,0,0,1-.061-.141Z" fill="#f8f8f8"/><path d="M164.174,164.01l2.741-2.485a1.537,1.537,0,0,0,.369-.51,1.517,1.517,0,0,0-2.408-1.728l-.285.261a.195.195,0,0,1-.145.058.192.192,0,0,1-.078-.017.188.188,0,0,1-.065-.046.2.2,0,0,1-.043-.067.215.215,0,0,1-.013-.079.191.191,0,0,1,.019-.078.2.2,0,0,1,.047-.064l.285-.27a1.968,1.968,0,0,1,1.3-.5,1.923,1.923,0,0,1,1.3,3.339l-2.346,2.131,2.779-.007a.205.205,0,0,1,.194.205.208.208,0,0,1-.056.142.205.205,0,0,1-.138.064l-3.276.009h-.033a.2.2,0,0,1-.083-.012.2.2,0,0,1-.069-.047.219.219,0,0,1,.006-.3Z" fill="#f8f8f8"/><path d="M177.713,158.827l-1.517,1.565a1.986,1.986,0,0,1,1.009,3.358,2,2,0,0,1-1.41.592,1.965,1.965,0,0,1-1.4-.585.211.211,0,0,1-.05-.068.206.206,0,0,1-.02-.081.2.2,0,0,1,.015-.083.2.2,0,0,1,.046-.07.21.21,0,0,1,.152-.061.209.209,0,0,1,.15.069,1.574,1.574,0,1,0,1.11-2.691.216.216,0,0,1-.168-.084h-.009a.2.2,0,0,1-.046-.069.211.211,0,0,1-.017-.082.206.206,0,0,1,.017-.081.218.218,0,0,1,.046-.07l1.459-1.507-2.252.006a.21.21,0,0,1-.21-.21.208.208,0,0,1,.21-.21l2.746-.007a.22.22,0,0,1,.081.015.228.228,0,0,1,.069.045.211.211,0,0,1,.045.069.2.2,0,0,1,.016.08.169.169,0,0,1-.025.093A.191.191,0,0,1,177.713,158.827Z" fill="#f8f8f8"/><path d="M182.66,163.113l-3.183.009h-.026a.185.185,0,0,1-.126-.042.192.192,0,0,1-.076-.137.2.2,0,0,1,.009-.08.211.211,0,0,1,.041-.069l3.391-4.241.009-.009a.192.192,0,0,1,.061-.052.191.191,0,0,1,.224.027.266.266,0,0,1,.068.1c0,.017.008.025.008.033v.026l.011,4.032h.394a.2.2,0,0,1,.143.059.2.2,0,0,1,0,.284.2.2,0,0,1-.143.06h-.394v1.007a.2.2,0,0,1-.017.079.2.2,0,0,1-.046.066.2.2,0,0,1-.067.043.194.194,0,0,1-.079.014.2.2,0,0,1-.142-.059.2.2,0,0,1-.06-.141Zm0-.4-.009-3.443-2.771,3.45Z" fill="#f8f8f8"/><path d="M184.994,163.737a.2.2,0,0,1-.064-.147.2.2,0,0,1,.017-.08.208.208,0,0,1,.047-.067.214.214,0,0,1,.069-.046.21.21,0,0,1,.082-.016.2.2,0,0,1,.081.016.218.218,0,0,1,.07.046,1.574,1.574,0,1,0-.006-2.225.191.191,0,0,1-.067.046.194.194,0,0,1-.159,0,.192.192,0,0,1-.067-.046.128.128,0,0,1-.051-.066v-.009a.028.028,0,0,1-.008-.011.034.034,0,0,1,0-.014.154.154,0,0,1-.009-.067.313.313,0,0,0,.009-.042l.279-2.369a.177.177,0,0,1,.084-.156.188.188,0,0,1,.134-.05l2.738-.008a.229.229,0,0,1,.082.015.21.21,0,0,1,.068.046.2.2,0,0,1,.046.068.2.2,0,0,1,.015.081.185.185,0,0,1-.014.081.188.188,0,0,1-.045.069.19.19,0,0,1-.069.046.2.2,0,0,1-.081.014l-2.562.007-.206,1.747a1.992,1.992,0,0,1,1-.271,1.992,1.992,0,0,1,1.412,3.4,2.04,2.04,0,0,1-1.41.584,1.99,1.99,0,0,1-1.413-.573Z" fill="#f8f8f8"/><path d="M190.584,159.708a2.385,2.385,0,0,1,2.054-1.282.2.2,0,0,1,.145.054.206.206,0,0,1,.066.139.219.219,0,0,1-.2.219,1.989,1.989,0,0,0-1.712,1.071,3.8,3.8,0,0,0-.417,1.177,1.933,1.933,0,1,1-.484,1.344,2.809,2.809,0,0,1-.018-.389A4.851,4.851,0,0,1,190.584,159.708Zm-.136,2.688a.337.337,0,0,0,.018.109.109.109,0,0,1-.01.059,1.578,1.578,0,1,0-.008-.2Z" fill="#f8f8f8"/><path d="M154.149,174.481l-51.282.133.007,2.52L154.155,177Z" fill="#a6a6a6"/><path d="M139.186,180.116l-36.305.094.006,2.52,36.306-.094Z" fill="#a6a6a6"/><path d="M172.644,132.29l-25.576.067.007,2.519,25.576-.066Z" fill="#a6a6a6"/><path d="M362.282,329.648H37.719a.5.5,0,1,1,0-1H362.282a.5.5,0,0,1,0,1Z" fill="#263238"/><path d="M200,368c94.441,0,171-9.584,171-21.406s-76.559-21.407-171-21.407S29,334.772,29,346.6,105.559,368,200,368Z" fill="#ebebeb"/><path d="M343.291,70.233V320.757a13.253,13.253,0,0,1-13.125,13.357H200.545a13.251,13.251,0,0,1-13.118-13.357V70.233a13.24,13.24,0,0,1,13.118-13.356H330.166a13.24,13.24,0,0,1,13.125,13.356Z" fill="#263238"/><path d="M335.092,82.809v229.7c0,7.02-5.259,12.7-11.743,12.7H207.382c-6.5,0-11.758-5.685-11.758-12.7V82.809c0-14.309,5.26-17.467,11.758-17.467h23.227c1.348,0,2.449,1.527,2.449,3.423v.819c0,4.46,2.438,4.474,5.44,4.474H292.22c3.014,0,5.437-.014,5.437-4.474v-.815c0-1.9,1.09-3.423,2.451-3.423h23.241C329.833,65.339,335.092,69.707,335.092,82.809Z" fill="#fff"/><path d="M272.685,68.5H258.032a.9.9,0,1,1,0-1.81h14.653a.9.9,0,0,1,0,1.81Z" fill="#fff"/><path d="M226.015,84.952H214.349v1.919h11.666Z" fill="#ff6700"/><path d="M226.015,88.79H214.349v1.919h11.666Z" fill="#ff6700"/><path d="M226.015,92.628H214.349v1.919h11.666Z" fill="#ff6700"/><path d="M282.424,88.4l-1.28.97,3.926,5.18,1.281-.97Z" fill="#dbdbdb"/><path d="M283.827,86.2a3.494,3.494,0,1,1-1.025-.9A3.491,3.491,0,0,1,283.827,86.2Z" fill="#dbdbdb"/><path d="M282.712,87.056a2.092,2.092,0,1,1-.613-.539A2.088,2.088,0,0,1,282.712,87.056Z" fill="#fff"/><path d="M301.5,90.216a15.6,15.6,0,0,1-4.268,4.333,15.518,15.518,0,0,1-4.262-4.333c-1.417-2.6-.635-5.265,1.4-5.265,2.272,0,2.86,2.834,2.86,2.834s.6-2.834,2.859-2.834C302.129,84.95,302.919,87.615,301.5,90.216Z" fill="#dbdbdb"/><path d="M315.02,92.622h-7.044L306.2,85.486h-.7v-.6h1.176l.351,1.411,9.739.008Zm-6.573-.6h6.114l1.411-5.113-8.8-.008Z" fill="#dbdbdb"/><path d="M313.88,93.77l-.487-1.157h-4l-.389,1.137-.571-.2.532-1.545H313.8l.642,1.526Z" fill="#dbdbdb"/><path d="M315.935,87.692h-8.8v.6h8.8Z" fill="#dbdbdb"/><path d="M315.566,89.812l-7.958-.035v-.6l7.958.035Z" fill="#dbdbdb"/><path d="M315.148,90.725h-7.21v.6h7.21Z" fill="#dbdbdb"/><path d="M311.751,86.629h-.6v5.69h.6Z" fill="#dbdbdb"/><path d="M312.7,86.605l-.452,5.691.6.048.452-5.691Z" fill="#dbdbdb"/><path d="M314.423,86.577l-1.047,5.688.594.109,1.048-5.687Z" fill="#dbdbdb"/><path d="M310.223,86.605l-.6.048.457,5.692.6-.048Z" fill="#dbdbdb"/><path d="M308.5,86.575l-.6.109,1.048,5.693.6-.109Z" fill="#dbdbdb"/><path d="M314.155,94.616a.963.963,0,1,1,.681-.282A.961.961,0,0,1,314.155,94.616Zm0-1.323a.359.359,0,1,0,.359.359.36.36,0,0,0-.359-.358Z" fill="#dbdbdb"/><path d="M308.74,94.616a.964.964,0,1,1,.68-.283A.965.965,0,0,1,308.74,94.616Zm0-1.323a.359.359,0,1,0,.137.69.357.357,0,0,0,.221-.331.358.358,0,0,0-.1-.253.362.362,0,0,0-.253-.105Z" fill="#dbdbdb"/><path d="M318.947,84.738a2.575,2.575,0,1,1-.2-.986A2.579,2.579,0,0,1,318.947,84.738Z" fill="#f9920f"/><path d="M316.729,83.264v2.847a.268.268,0,0,1-.27.265.263.263,0,0,1-.189-.077.258.258,0,0,1-.077-.189V83.735l-.193.111a.245.245,0,0,1-.136.039.271.271,0,0,1-.159-.057.264.264,0,0,1-.094-.14.27.27,0,0,1,.113-.3l.594-.352c.005,0,.016,0,.02-.01a.067.067,0,0,1,.024-.014.065.065,0,0,1,.029,0,.029.029,0,0,1,.02-.006.079.079,0,0,1,.034,0h.053a.025.025,0,0,0,.018,0,.048.048,0,0,1,.029.01.033.033,0,0,1,.02,0c.014.009.019.015.028.015a.11.11,0,0,0,.02.014c.005,0,.015.01.02.015s.013.015.019.019a.078.078,0,0,1,.015.02l.018.019.005.01s.005.009.005.014a.046.046,0,0,1,.01.025c0,.009,0,.019.01.023a.213.213,0,0,0,0,.025.053.053,0,0,0,0,.018.033.033,0,0,0,.008.016Z" fill="#fff"/><path d="M278.48,221.672H214.349v1.814H278.48Z" fill="#dbdbdb"/><path d="M269.5,225.061H214.349v1.815H269.5Z" fill="#dbdbdb"/><path d="M207.916,166.825l-2.576-2.412L207.916,162l.4.425-2.12,1.987,2.12,1.987Z" fill="#c7c7c7"/><path d="M207.393,168.712a4.3,4.3,0,1,1,3.039-1.26A4.305,4.305,0,0,1,207.393,168.712Zm0-7.821a3.525,3.525,0,1,0,2.489,1.032A3.521,3.521,0,0,0,207.393,160.891Z" fill="#c7c7c7"/><path d="M322.8,166.825l-.4-.426,2.121-1.986-2.121-1.987.4-.426,2.575,2.412Z" fill="#c7c7c7"/><path d="M323.325,168.712a4.3,4.3,0,1,1,3.041-1.26A4.3,4.3,0,0,1,323.325,168.712Zm0-7.821a3.525,3.525,0,1,0,2.491,1.032A3.513,3.513,0,0,0,323.325,160.891Z" fill="#c7c7c7"/><path d="M218.4,268.12a.244.244,0,0,1,.089.018.237.237,0,0,1,.127.127.243.243,0,0,1,.017.089v.389a3.151,3.151,0,0,1,1.721.677.259.259,0,0,1,.1.093.266.266,0,0,1,.039.128.245.245,0,0,1-.076.173.248.248,0,0,1-.175.069.235.235,0,0,1-.174-.068,2.763,2.763,0,0,0-1.449-.628v2.706c1.469.311,2.088.86,2.088,1.807a1.905,1.905,0,0,1-2.07,1.79v.753a.23.23,0,0,1-.068.165.232.232,0,0,1-.33,0,.231.231,0,0,1-.068-.165v-.771a3.644,3.644,0,0,1-2.175-.934.254.254,0,0,1-.077-.089.245.245,0,0,1-.029-.115.25.25,0,0,1,.074-.168.258.258,0,0,1,.168-.073.243.243,0,0,1,.093.016.235.235,0,0,1,.08.052,3.124,3.124,0,0,0,1.885.879v-2.758c-1.45-.319-2.049-.85-2.049-1.817a1.883,1.883,0,0,1,2.03-1.749v-.367a.234.234,0,0,1,.233-.229Zm-.213,3.672v-2.638c-.938.02-1.556.58-1.556,1.276C216.628,271.087,216.937,271.492,218.184,271.792Zm.425.589v2.668c.966-.02,1.6-.579,1.6-1.315C220.2,273.068,219.865,272.662,218.609,272.381Z"/><path d="M221.925,275.068l3.16-2.851a1.721,1.721,0,0,0,.065-2.516,1.74,1.74,0,0,0-1.224-.508,1.758,1.758,0,0,0-1.18.445l-.329.3a.224.224,0,0,1-.077.059.249.249,0,0,1-.094.022.255.255,0,0,1-.1-.018.259.259,0,0,1-.08-.055.239.239,0,0,1-.063-.179.236.236,0,0,1,.09-.166l.329-.312a2.27,2.27,0,0,1,1.5-.569,2.211,2.211,0,0,1,1.478,3.846l-2.706,2.445h3.2a.238.238,0,0,1,.091.018.241.241,0,0,1,.077.053.226.226,0,0,1,.05.079.236.236,0,0,1-.218.325h-3.808a.22.22,0,0,1-.1-.014.214.214,0,0,1-.079-.054.254.254,0,0,1,.01-.348Z"/><path d="M227.733,272.1a4.3,4.3,0,0,1,.647-2.367,1.917,1.917,0,0,1,3.382,0,4.386,4.386,0,0,1,.657,2.367,4.325,4.325,0,0,1-.657,2.358,1.909,1.909,0,0,1-3.382,0A4.247,4.247,0,0,1,227.733,272.1Zm.473,0a3.842,3.842,0,0,0,.569,2.1,1.44,1.44,0,0,0,2.592,0,4.087,4.087,0,0,0,0-4.194,1.44,1.44,0,0,0-2.592,0A3.832,3.832,0,0,0,228.206,272.1Z"/><path d="M235.048,274.517a.483.483,0,1,1-.484.483.488.488,0,0,1,.036-.185.48.48,0,0,1,.1-.158.483.483,0,0,1,.343-.14Z"/><path d="M236.43,272.1a4.317,4.317,0,0,1,.647-2.367,1.917,1.917,0,0,1,3.383,0,4.386,4.386,0,0,1,.657,2.367,4.317,4.317,0,0,1-.657,2.358,1.909,1.909,0,0,1-3.383,0A4.247,4.247,0,0,1,236.43,272.1Zm.474,0a3.842,3.842,0,0,0,.569,2.1,1.44,1.44,0,0,0,2.591,0,4.081,4.081,0,0,0,0-4.194,1.44,1.44,0,0,0-2.591,0A3.832,3.832,0,0,0,236.9,272.1Z"/><path d="M243.292,272.1a4.309,4.309,0,0,1,.648-2.367,1.916,1.916,0,0,1,3.381,0,4.378,4.378,0,0,1,.658,2.367,4.326,4.326,0,0,1-.658,2.358,1.907,1.907,0,0,1-3.381,0A4.248,4.248,0,0,1,243.292,272.1Zm.473,0a3.825,3.825,0,0,0,.571,2.1,1.439,1.439,0,0,0,2.59,0,4.081,4.081,0,0,0,0-4.194,1.439,1.439,0,0,0-2.59,0A3.834,3.834,0,0,0,243.765,272.1Z"/><path d="M217.166,232.208a2.4,2.4,0,0,1,1.458.5.146.146,0,0,1,.042.047.177.177,0,0,1,.02.06.169.169,0,0,1-.006.063.164.164,0,0,1-.03.055.142.142,0,0,1-.045.043.137.137,0,0,1-.058.022.153.153,0,0,1-.117-.032,2.052,2.052,0,0,0-1.264-.438,1.973,1.973,0,1,0,0,3.944,1.917,1.917,0,0,0,1.252-.438.168.168,0,0,1,.057-.028.154.154,0,0,1,.064,0,.158.158,0,0,1,.059.023.149.149,0,0,1,.045.045.169.169,0,0,1,.032.055.145.145,0,0,1,.007.062.16.16,0,0,1-.018.061.168.168,0,0,1-.04.048,2.386,2.386,0,0,1-1.458.49,2.3,2.3,0,0,1-1.657-.648,2.288,2.288,0,0,1,0-3.279,2.291,2.291,0,0,1,1.657-.649Z"/><path d="M221.2,233.626a1.582,1.582,0,1,1-1.5,1.579,1.544,1.544,0,0,1,1.5-1.579Zm0,2.849a1.276,1.276,0,1,0-.966-1.99,1.283,1.283,0,0,0-.22.72,1.237,1.237,0,0,0,1.186,1.27Z"/><path d="M223.924,232.428a.156.156,0,0,1,.046-.112.159.159,0,0,1,.224,0,.16.16,0,0,1,.046.112v4.2a.158.158,0,0,1-.27.111.155.155,0,0,1-.046-.111Z"/><path d="M226.83,233.626a1.581,1.581,0,1,1-1.495,1.579,1.546,1.546,0,0,1,1.495-1.579Zm0,2.849a1.276,1.276,0,1,0-.966-1.99,1.283,1.283,0,0,0-.22.72,1.235,1.235,0,0,0,1.186,1.27Z"/><path d="M229.382,233.787a.157.157,0,0,1,.012-.06.154.154,0,0,1,.035-.052.169.169,0,0,1,.053-.033.156.156,0,0,1,.061-.01.144.144,0,0,1,.058.013.136.136,0,0,1,.048.034.138.138,0,0,1,.032.05.165.165,0,0,1,.01.058v.7a.41.41,0,0,1,.046-.078,1.518,1.518,0,0,1,1.263-.773.155.155,0,0,1,.156.155.157.157,0,0,1-.156.156,1.136,1.136,0,0,0-.915.516,2.832,2.832,0,0,0-.381.734.1.1,0,0,0-.013.052v1.386a.152.152,0,0,1-.209.145.153.153,0,0,1-.053-.033.16.16,0,0,1-.035-.051.158.158,0,0,1-.012-.061Z"/><path d="M308.169,285.617H222.55v18.03h85.619Z" fill="#ff6700"/><path d="M237.189,296.765H234.84l-.473,1.256a.545.545,0,0,1-.5.339.609.609,0,0,1-.184-.029.549.549,0,0,1-.318-.7l2.136-5.691a.566.566,0,0,1,.822-.251.53.53,0,0,1,.2.251l2.137,5.691a.532.532,0,0,1-.5.729.522.522,0,0,1-.3-.091.514.514,0,0,1-.193-.248Zm-.4-1.063-.783-2.077-.784,2.077Z" fill="#fff"/><path d="M239.982,297.828v-5.7a.516.516,0,0,1,.039-.205.526.526,0,0,1,.288-.288.511.511,0,0,1,.2-.039h1.141a3.385,3.385,0,0,1,0,6.769h-1.141a.527.527,0,0,1-.2-.041.537.537,0,0,1-.173-.116.512.512,0,0,1-.115-.175A.548.548,0,0,1,239.982,297.828Zm1.074-.545h.6a2.31,2.31,0,0,0,0-4.619h-.6Z" fill="#fff"/><path d="M246.641,297.828v-5.7a.533.533,0,0,1,.038-.205.5.5,0,0,1,.115-.173.518.518,0,0,1,.174-.115.507.507,0,0,1,.2-.039h1.141a3.385,3.385,0,0,1,0,6.769h-1.141a.527.527,0,0,1-.2-.041.552.552,0,0,1-.174-.116.53.53,0,0,1-.114-.174A.519.519,0,0,1,246.641,297.828Zm1.073-.545h.6a2.31,2.31,0,0,0,0-4.619h-.6Z" fill="#fff"/><path d="M260.626,292.665h-1.537v5.16a.528.528,0,0,1-.038.2.525.525,0,0,1-.493.328.549.549,0,0,1-.2-.04.542.542,0,0,1-.173-.116.534.534,0,0,1-.115-.173.521.521,0,0,1-.04-.2v-5.16H256.5a.539.539,0,0,1-.531-.545.527.527,0,0,1,.038-.2.526.526,0,0,1,.288-.288.513.513,0,0,1,.2-.039h4.124a.521.521,0,0,1,.2.04.532.532,0,0,1,.289.288.544.544,0,0,1-.489.748Z" fill="#fff"/><path d="M267.554,292.436a3.548,3.548,0,0,1,0,4.89,3.159,3.159,0,0,1-2.308,1.034,3.265,3.265,0,0,1-2.368-1.034,3.6,3.6,0,0,1,0-4.89,3.221,3.221,0,0,1,2.368-1.034,3.125,3.125,0,0,1,2.308,1.034Zm-.125,2.445a2.506,2.506,0,0,0-.657-1.692,2.078,2.078,0,0,0-2.382-.509,2.129,2.129,0,0,0-.711.509,2.458,2.458,0,0,0-.657,1.692,2.413,2.413,0,0,0,.657,1.681,2.066,2.066,0,0,0,3.093,0A2.461,2.461,0,0,0,267.429,294.881Z" fill="#fff"/><path d="M273.034,294.881a3.55,3.55,0,0,1,3.548-3.479,3.612,3.612,0,0,1,2.232.754.555.555,0,0,1-.27.98.56.56,0,0,1-.406-.1,2.414,2.414,0,0,0-1.556-.532,2.562,2.562,0,0,0-1.739.7,2.35,2.35,0,0,0,0,3.363,2.56,2.56,0,0,0,1.739.7,2.434,2.434,0,0,0,1.556-.531.549.549,0,0,1,.878.511.569.569,0,0,1-.2.368,3.619,3.619,0,0,1-2.232.754,3.539,3.539,0,0,1-3.548-3.483Z" fill="#fff"/><path d="M284.09,296.765h-2.347l-.475,1.256a.538.538,0,0,1-.5.339.6.6,0,0,1-.183-.029.55.55,0,0,1-.32-.7l2.137-5.691a.537.537,0,0,1,.512-.339.538.538,0,0,1,.31.088.524.524,0,0,1,.2.251l2.136,5.691a.531.531,0,0,1-.5.729.518.518,0,0,1-.493-.339ZM283.7,295.7l-.783-2.077-.783,2.077Z" fill="#fff"/><path d="M291.355,297.558a.519.519,0,0,1,.027.207.541.541,0,0,1-.184.366.544.544,0,0,1-.181.1.956.956,0,0,1-.213.028H290.8a.707.707,0,0,1-.377-.106.958.958,0,0,1-.312-.339,2.606,2.606,0,0,1-.2-1.16.815.815,0,0,0-.116-.414.882.882,0,0,0-.29-.28,1.842,1.842,0,0,0-.545-.234h-1.14v2.1a.54.54,0,0,1-.044.206.527.527,0,0,1-.118.173.536.536,0,0,1-.176.115.543.543,0,0,1-.207.038.53.53,0,0,1-.2-.04.535.535,0,0,1-.288-.288.549.549,0,0,1-.04-.2v-5.7a.508.508,0,0,1,.039-.2.517.517,0,0,1,.115-.174.5.5,0,0,1,.173-.115.533.533,0,0,1,.2-.038H289a2.069,2.069,0,0,1,2.069,2.077,2.053,2.053,0,0,1-.754,1.585,1.512,1.512,0,0,1,.338.358,1.83,1.83,0,0,1,.319,1.043,2.43,2.43,0,0,0,.038.571.514.514,0,0,1,.348.33ZM290,293.673a.994.994,0,0,0-.612-.928.993.993,0,0,0-.383-.077h-1.19v1.991h1.19a.992.992,0,0,0,1-.983Z" fill="#fff"/><path d="M296.867,292.665h-1.536v5.16a.528.528,0,0,1-.038.2.55.55,0,0,1-.115.174.518.518,0,0,1-.174.115.511.511,0,0,1-.2.039.545.545,0,0,1-.2-.04.532.532,0,0,1-.328-.492v-5.16h-1.527a.538.538,0,0,1-.532-.545.528.528,0,0,1,.038-.2.521.521,0,0,1,.289-.289.53.53,0,0,1,.2-.038h4.124a.521.521,0,0,1,.2.04.532.532,0,0,1,.289.288.544.544,0,0,1-.49.748Z" fill="#fff"/><path d="M306.917,203.981c0,3.217-18.785,5.825-41.958,5.825S223,207.2,223,203.981s18.786-5.824,41.959-5.824S306.917,200.764,306.917,203.981Z" fill="#dbdbdb"/><path d="M281.895,128H249.1a5.248,5.248,0,0,0-5.232,5.233v64.534A5.248,5.248,0,0,0,249.1,203h32.791a5.248,5.248,0,0,0,5.233-5.233V133.233A5.249,5.249,0,0,0,281.895,128Zm4.186,69.767a4.191,4.191,0,0,1-4.186,4.187H249.1a4.191,4.191,0,0,1-4.186-4.187V133.233a4.192,4.192,0,0,1,4.186-4.187h32.791a4.191,4.191,0,0,1,4.186,4.187Z" fill="#5e889e"/><path d="M281.895,129.744h-9.419v.7a1.043,1.043,0,0,1-1.045,1.047H259.57a1.046,1.046,0,0,1-1.047-1.047v-.7H249.1a3.492,3.492,0,0,0-3.487,3.489v64.533a3.492,3.492,0,0,0,3.487,3.489h32.791a3.492,3.492,0,0,0,3.488-3.489V133.233A3.493,3.493,0,0,0,281.895,129.744Zm-28.6,2.893a1.235,1.235,0,1,1-1.235,1.235A1.236,1.236,0,0,1,253.291,132.637Zm12.209,67.4a2.5,2.5,0,1,1,2.5-2.5A2.5,2.5,0,0,1,265.5,200.036Zm17.441-6.222H248.058V138h34.883Z" fill="#5e889e"/><path d="M215.514,113v-5.029h.019l1.988,4.516h.659l1.982-4.516h.025V113h.659v-6.66h-.7l-2.285,5.337h-.019l-2.29-5.337h-.7V113Zm8.877-5.195a2.111,2.111,0,0,0-2.163,2.407v.459c0,1.44.7,2.412,2.163,2.412s2.158-.981,2.158-2.412v-.459C226.549,108.786,225.851,107.805,224.391,107.805Zm0,.63c1.059,0,1.435.844,1.435,1.86v.3c0,1.04-.376,1.85-1.435,1.85s-1.451-.815-1.451-1.85v-.3C222.94,109.274,223.331,108.435,224.391,108.435Zm5.7,4.648c1.255,0,2.026-.85,2.026-2.319v-.65c0-1.372-.713-2.309-2-2.309a1.563,1.563,0,0,0-1.523.815h-.02v-2.637h-.718V113h.679v-.8h.02A1.539,1.539,0,0,0,230.089,113.083Zm-.083-.64a1.489,1.489,0,0,1-1.431-1.674v-.635a1.509,1.509,0,0,1,1.431-1.7c.854,0,1.387.629,1.387,1.762v.518C231.393,111.848,230.816,112.443,230.006,112.443Zm3.54.557h.718v-5.112h-.718Zm-.132-6.367a.491.491,0,1,0,.483-.488A.484.484,0,0,0,233.414,106.633ZM235.973,113h.717v-7.017h-.717Zm4.179.083a1.783,1.783,0,0,0,1.934-1.44h-.757a1.082,1.082,0,0,1-1.182.8c-.986,0-1.406-.8-1.406-1.679v-.142h3.418v-.4c0-1.421-.679-2.412-2.07-2.412s-2.07,1.025-2.07,2.422v.488C238.019,112.092,238.712,113.083,240.152,113.083ZM238.741,110v-.015a1.361,1.361,0,1,1,2.7,0V110Zm8.95,3.081a1.99,1.99,0,0,0,2-2.261v-.752a2,2,0,0,0-1.962-2.265,1.613,1.613,0,0,0-1.582.815h-.02v-.737h-.684v6.889h.718v-2.485h.02A1.589,1.589,0,0,0,247.691,113.083Zm-.1-.64a1.517,1.517,0,0,1-1.436-1.684v-.669a1.463,1.463,0,0,1,1.416-1.655c.86,0,1.4.62,1.4,1.733v.537C248.971,111.867,248.39,112.443,247.594,112.443Zm3.413.557h.718v-3.042a1.317,1.317,0,0,1,1.367-1.494c.859,0,1.289.62,1.289,1.474V113h.723v-3.2a1.854,1.854,0,0,0-1.9-1.992,1.5,1.5,0,0,0-1.45.776h-.024v-2.6h-.718Zm7.534-5.195a2.111,2.111,0,0,0-2.163,2.407v.459c0,1.44.7,2.412,2.163,2.412s2.158-.981,2.158-2.412v-.459C260.7,108.786,260,107.805,258.541,107.805Zm0,.63c1.06,0,1.436.844,1.436,1.86v.3c0,1.04-.376,1.85-1.436,1.85s-1.45-.815-1.45-1.85v-.3C257.091,109.274,257.481,108.435,258.541,108.435ZM262,113h.718v-3.071c0-.923.473-1.465,1.343-1.465s1.294.483,1.294,1.4V113h.722v-3.4a1.72,1.72,0,0,0-1.846-1.792,1.6,1.6,0,0,0-1.494.776h-.019v-.693H262Zm7.481.083a1.782,1.782,0,0,0,1.933-1.44h-.757a1.082,1.082,0,0,1-1.181.8c-.987,0-1.407-.8-1.407-1.679v-.142h3.418v-.4c0-1.421-.678-2.412-2.07-2.412s-2.07,1.025-2.07,2.422v.488C267.345,112.092,268.038,113.083,269.479,113.083ZM268.067,110v-.015a1.361,1.361,0,1,1,2.7,0V110Z"/><path d="M60.159,351.49l114.21.492c27.76-21.793,30.627-54.082,10.823-73.653-11.983-11.838-27.206-9.45-41.7-11.333-.014,0-.028-.007-.041-.007a42.729,42.729,0,0,1-14.7-4.313c-14.922-7.871-23.335-26.438-35.889-42.056q-2.348-2.94-4.917-5.7c-10.324-11.025-30.872-11.379-41.619,4.115C19.017,258.407,31.531,317.005,60.159,351.49Z" fill="#c7c7c7"/><path d="M57.624,261.41c2.991,46.846,57.1,64.334,90.9,50.3,29.387-12.2,19.765-40.055-5.034-44.715-.014,0-.028-.007-.042-.007a42.73,42.73,0,0,1-14.7-4.313c-14.922-7.871-23.335-26.438-35.889-42.056C74.16,210.907,55.429,227.107,57.624,261.41Z" fill="#dbdbdb"/><path d="M164.876,358.583c-1.767-.645-41.683-32.543-42.437-34.721-.29-.825,4.016-6.907,9.43-14.109,1.167-1.556,2.385-3.156,3.629-4.773,8.067-10.507,16.871-21.472,16.871-21.472l26.764,21.258-17.608,20.885-3.862,4.59s9.82,19.045,10.389,21.523S166.643,359.231,164.876,358.583Z" fill="#f7a9a0"/><path d="M164.876,358.583c-1.768-.645-41.684-32.543-42.438-34.721-.348-1.005,6.082-9.777,13.06-18.882l26.027,20.671-3.862,4.591s9.819,19.045,10.389,21.522S166.643,359.231,164.876,358.583Z" fill="#fff"/><path d="M164.876,358.583c-1.767-.645-41.683-32.543-42.437-34.721-.29-.825,4.016-6.907,9.43-14.109l25.794,20.488s9.82,19.045,10.389,21.523S166.643,359.231,164.876,358.583Z" fill="#ff6700"/><path d="M165.579,356.529c-6.56-5.51-33.538-27.117-40.441-32.066-.056-.04-.086,0-.034.042,6.381,5.6,33.539,27,40.386,32.135C165.636,356.748,165.717,356.646,165.579,356.529Z" fill="#263238"/><path d="M166.633,348.278a6.878,6.878,0,0,0-5.308-1.565,6.663,6.663,0,0,0-4.351,2.377c-.03.04.042.1.078.064a7.956,7.956,0,0,1,9.511-.793.054.054,0,0,0,.077-.006.056.056,0,0,0-.007-.077Z" fill="#263238"/><path d="M159.727,332.981c-2.646-2.178-6.509-3.713-9.924-2.852-.132.033-.083.22.03.242a47.462,47.462,0,0,1,9.676,2.976.215.215,0,0,0,.265-.09.217.217,0,0,0-.047-.276Z" fill="#263238"/><path d="M161.15,335.439c-2.646-2.178-6.51-3.713-9.924-2.853-.132.034-.083.221.029.243a47.39,47.39,0,0,1,9.677,2.977.216.216,0,0,0,.294-.237A.218.218,0,0,0,161.15,335.439Z" fill="#263238"/><path d="M162.571,337.9c-2.646-2.179-6.509-3.713-9.924-2.853-.132.033-.083.221.029.243a47.45,47.45,0,0,1,9.677,2.976.215.215,0,0,0,.15,0,.212.212,0,0,0,.116-.094.215.215,0,0,0,.027-.147A.219.219,0,0,0,162.571,337.9Z" fill="#263238"/><path d="M164,340.355c-2.646-2.178-6.508-3.712-9.924-2.853-.132.034-.082.221.03.244a47.451,47.451,0,0,1,9.677,2.976.216.216,0,0,0,.266-.091.217.217,0,0,0-.049-.276Z" fill="#263238"/><path d="M131.922,319.47c-3.012-2.391-6.736,2.284-3.719,4.681S134.939,321.867,131.922,319.47Z" fill="#fff"/><path d="M168.329,328.149c-.457-2.207-3.043-2.474-4.812-1.974a17.991,17.991,0,0,0-7.907,4.9.1.1,0,0,0-.022.036.1.1,0,0,0,0,.042.1.1,0,0,0,.016.039.084.084,0,0,0,.032.027.418.418,0,0,0-.045.19.434.434,0,0,0,.047.19.421.421,0,0,0,.128.147.428.428,0,0,0,.181.073c2.961.2,6.1.792,9.037.078C166.7,331.486,168.764,330.236,168.329,328.149Zm-7.835,3.065c-1.458-.065-2.9-.2-4.365-.213a53.573,53.573,0,0,1,4.68-2.762,19.288,19.288,0,0,1,2.422-1.024c1.289-.419,5.707-.557,3.644,2.567-1.133,1.725-4.639,1.511-6.378,1.432Z" fill="#263238"/><path d="M148.167,326.753c2.045,2.221,4.98,3.48,7.556,4.955a.414.414,0,0,0,.379-.014.417.417,0,0,0,.212-.314.1.1,0,0,0,.041-.005.079.079,0,0,0,.035-.024.076.076,0,0,0,.02-.036.086.086,0,0,0,0-.042,17.99,17.99,0,0,0-3.846-8.469c-1.193-1.4-3.49-2.614-5.1-1.034C145.948,323.265,146.972,325.457,148.167,326.753Zm-.4-2.815c.025-3.746,3.62-1.176,4.459-.11a19.468,19.468,0,0,1,1.443,2.2,53.649,53.649,0,0,1,2.355,4.9c-1.22-.8-2.5-1.493-3.748-2.249-1.488-.906-4.522-2.675-4.509-4.737Z" fill="#263238"/><path d="M206.164,263.894c-1.834,13.9-36.1,54.032-40.061,58.635l-.9,1.048L136.857,301.8l.326-.421L162.144,268.7l-74.452-.438,28.267-21.975s2.294,1.322,7.061.627c16.431-2.4,53.476-7.729,62.212-7.377C196.5,240,207.847,251.139,206.164,263.894Z" fill="#37474f"/><path d="M171.108,256.557a33.084,33.084,0,0,0-2.575,3.3c-.882,1.157-1.779,2.3-2.659,3.46l-.026.034c.155-.339.311-.679.471-1.016.557-1.151,1-2.341,1.659-3.442a.06.06,0,0,0-.1-.063c-.676,1.094-1.46,2.132-2.039,3.282q-.408.813-.77,1.647c-.132.3-.267.61-.385.92a4.379,4.379,0,0,0-.162.445c-.4.538-.785,1.077-1.167,1.625-.84,1.217-1.583,2.5-2.433,3.711-.046.065.057.125.1.065.862-1.137,1.828-2.195,2.7-3.322.89-1.147,1.736-2.326,2.568-3.514.814-1.159,1.611-2.33,2.424-3.49a34.463,34.463,0,0,0,2.455-3.585A.043.043,0,0,0,171.108,256.557Z" fill="#263238"/><path d="M91.853,186.727c-5.906,4.649-11.75,35.027-14.035,38.384-1.617,2.373-3.636,4.752-3.545,6.086s5.758,7.916,16.472,9.989,21.279-3.041,22.354-4.389-1.754-5.964-1.645-10.132,3.813-26.908,1.541-33.691C110.42,185.293,98.616,181.4,91.853,186.727Z" fill="#263238"/><path d="M113.852,235.507a19.824,19.824,0,0,1-1.611-8.6c.06-3.321.485-6.645.856-9.944q.581-5.218,1.156-10.439c.336-3.074.753-6.177.206-9.243a17.221,17.221,0,0,0-3.792-8.062c-.028-.033-.084,0-.057.039a18.31,18.31,0,0,1,3.522,8.051c.556,3.286.021,6.641-.35,9.929q-.576,5.118-1.137,10.24c-.346,3.14-.732,6.3-.768,9.46-.032,2.91.259,6.146,1.806,8.654C113.736,235.689,113.9,235.611,113.852,235.507Z" fill="#263238"/><path d="M92.776,186.524c-2.735,1.486-4.078,4.426-5.169,7.251-1.483,3.839-2.839,7.729-4.119,11.641-1.323,4.037-2.412,8.143-3.708,12.186A42.727,42.727,0,0,1,74.2,228.637c-.053.078.046.174.11.1,5.1-5.962,6.67-14.03,9-21.332q1.938-6.069,4.084-12.059c1.161-3.232,2.356-6.9,5.419-8.755C92.862,186.563,92.819,186.5,92.776,186.524Z" fill="#263238"/><path d="M95.278,185.419c-5.728,2.243-7.994,8.649-9.841,14.12-2.194,6.5-3.773,13.186-5.7,19.766-1.089,3.705-2.068,7.735-4.478,10.813-.073.094.059.214.137.123a22.05,22.05,0,0,0,3.681-7.669c1.054-3.256,1.967-6.557,2.879-9.855,1.8-6.535,3.451-13.282,6.272-19.463,1.485-3.252,3.7-6.428,7.081-7.776C95.339,185.465,95.318,185.4,95.278,185.419Z" fill="#263238"/><path d="M97.007,226.537c5.045,7.243,22.346,26.039,34.308,28.765,6.592,1.5,38.441,5.956,42.81,1.986,5.113-4.651,2.741-22.184-1.323-22.344-12.406-.488-35.366,1.94-41.1.673-2.6-.572-16.341-9.439-31.028-16.532C95.12,216.4,93.75,221.865,97.007,226.537Z" fill="#f7a9a0"/><path d="M166.048,233.983l-2.129,26.248s-28.9-.456-37.625-5.361-22.926-17.414-28.36-26.106-3.616-13.436,6.99-8.091,24.925,13.926,26.8,14.381S166.048,233.983,166.048,233.983Z" fill="#ff6700"/><path d="M161.4,235.807c0-.068-.1-.1-.119-.02-.358,1.8-.505,3.656-.711,5.48-.212,1.887-.389,3.779-.562,5.671-.339,3.77-.737,7.566-.856,11.35a.11.11,0,0,0,0,.051.115.115,0,0,0,.022.046.122.122,0,0,0,.039.032.118.118,0,0,0,.049.012.108.108,0,0,0,.05-.009.11.11,0,0,0,.042-.029.112.112,0,0,0,.025-.044.12.12,0,0,0,.005-.05c.569-3.717.871-7.494,1.222-11.239.175-1.854.342-3.712.475-5.572C161.224,239.6,161.426,237.7,161.4,235.807Z" fill="#263238"/><path d="M71.131,274.5c1.584.51,46.644-12.526,46.644-12.526l-5.321-15.641s2.628-5.03,1.407-9.869c-1.634-6.463-13.6-17.091-14.537-17.715-3.776-2.5-7.315-2.459-10.442-.8C75.853,224.87,71.131,274.5,71.131,274.5Z" fill="#ff6700"/><path d="M105.507,224.379c1.16,1.351,2.406,2.635,3.6,3.957-.559-.986-1.114-1.974-1.712-2.939-.012-.02.014-.042.029-.023a22.07,22.07,0,0,1,2.285,3.638,30.37,30.37,0,0,1,2.484,3.17,14.145,14.145,0,0,1,2.047,4.362,11.966,11.966,0,0,1,.137,4.823,30.845,30.845,0,0,1-1.522,5.39c-.082.234-.412.086-.349-.142.847-3.055,1.806-6.28,1.127-9.464-.671-3.147-2.646-5.82-4.562-8.325a44.349,44.349,0,0,0-3.666-4.372C105.357,224.4,105.455,224.319,105.507,224.379Z" fill="#ff6700"/><path d="M91.7,218.829c.179.818,3.99,6.159,7.716,6.039,1.213-.042,1.282-6.673,1.282-6.673l.118-.488,1.634-6.837-9.14-5.991S91.626,218.482,91.7,218.829Z" fill="#f7a9a0"/><path d="M102.445,210.867l-1.634,6.838a14.123,14.123,0,0,1-8.07-8.177c.279-2.357.521-4.317.552-4.6a.157.157,0,0,0,.007-.039l1.16.7Z" fill="#263238"/><path d="M113.12,202.469c-.773,12.312-8.236,13.24-10.894,13.07-2.412-.155-10.6-.985-11.1-13.312s5.466-15.859,11-15.8S113.893,190.156,113.12,202.469Z" fill="#f7a9a0"/><path d="M111.274,201.28a7.806,7.806,0,0,1-.8-.284,1.384,1.384,0,0,1-.764-.446.437.437,0,0,1,.072-.531,1.089,1.089,0,0,1,1.1-.11,1.6,1.6,0,0,1,.92.693.467.467,0,0,1-.522.678Z" fill="#263238"/><path d="M103.223,200.235a8.06,8.06,0,0,0,.851-.064,1.378,1.378,0,0,0,.856-.234.43.43,0,0,0,.125-.253.436.436,0,0,0-.055-.278,1.088,1.088,0,0,0-1.03-.394,1.6,1.6,0,0,0-1.07.428.468.468,0,0,0,.067.714A.47.47,0,0,0,103.223,200.235Z" fill="#263238"/><path d="M104.712,202.3c0-.033-.069.033-.072.067-.065.838-.281,1.789-1.067,1.981-.024.006-.027.049,0,.047C104.511,204.364,104.785,203.1,104.712,202.3Z" fill="#263238"/><path d="M104.062,201.344c-1.332-.25-1.733,2.433-.5,2.663C104.778,204.234,105.179,201.553,104.062,201.344Z" fill="#263238"/><path d="M103.514,201.408c-.257.116-.527.35-.813.335-.331-.016-.537-.334-.71-.635-.018-.032-.044-.012-.05.023-.085.513.034,1.07.574,1.228.492.146.921-.256,1.126-.754C103.68,201.513,103.618,201.36,103.514,201.408Z" fill="#263238"/><path d="M109.305,202.778c.011-.031.058.05.052.083-.156.826-.2,1.8.51,2.192.022.012.013.053-.014.045C108.957,204.825,109.024,203.535,109.305,202.778Z" fill="#263238"/><path d="M110.182,202.03c1.35.108,1.034,2.8-.218,2.7C108.733,204.63,109.05,201.937,110.182,202.03Z" fill="#263238"/><path d="M110.723,202.271c.2.168.376.452.628.5.292.054.544-.212.765-.467.024-.026.042,0,.039.035-.046.516-.28,1.032-.786,1.073-.462.038-.741-.443-.8-.971C110.554,202.341,110.643,202.2,110.723,202.271Z" fill="#263238"/><path d="M103.553,209.5c.16.233.305.535.6.622a2.247,2.247,0,0,0,.927-.033.023.023,0,0,1,.018,0,.035.035,0,0,1,.015.012.032.032,0,0,1,0,.019.028.028,0,0,1-.009.017,1.134,1.134,0,0,1-1.134.242.894.894,0,0,1-.506-.856A.046.046,0,0,1,103.553,209.5Z" fill="#263238"/><path d="M107.446,206.967s0,1.267-.078,1.853c-.008.055-.156.061-.354.046-.01,0-.016,0-.023,0a2.817,2.817,0,0,1-2.568-1.413c-.032-.063.05-.113.1-.07a4.244,4.244,0,0,0,2.445,1.08c.064-.156-.078-2.169.02-2.164a5.148,5.148,0,0,1,1.291.485c.077-2.639-.275-5.268-.161-7.894a.075.075,0,0,1,.017-.057.083.083,0,0,1,.052-.029.081.081,0,0,1,.058.017.077.077,0,0,1,.028.053,42.754,42.754,0,0,1,.536,8.494C108.814,207.705,107.667,207.1,107.446,206.967Z" fill="#263238"/><path d="M91.029,202.894a5.1,5.1,0,0,0,3.661-3.463,13.308,13.308,0,0,0,6.219-3.134c-.135.234-1.106,1.907-1.627,2.746a13.77,13.77,0,0,0,11.618-5.156,13.5,13.5,0,0,1,2.305,5.582s1.064-4.7-.682-8.368a7.766,7.766,0,0,0-6.338-4.629,11.1,11.1,0,0,0-11.295.992C88.74,191.829,91.029,202.894,91.029,202.894Z" fill="#263238"/><path d="M105.388,199.021a14.476,14.476,0,0,1-4.248.6c-.011,0-.011-.018,0-.019a12.315,12.315,0,0,0,6.366-2.2,11.681,11.681,0,0,0,2.152-1.961,8.039,8.039,0,0,0,1.646-2.708.062.062,0,0,1,.031-.031.066.066,0,0,1,.044,0,.065.065,0,0,1,.034.027.059.059,0,0,1,.008.043,9.431,9.431,0,0,1-1.256,2.894,8.631,8.631,0,0,1-2.25,2.178,9.889,9.889,0,0,1-2.528,1.178" fill="#263238"/><path d="M93.022,203.3s-2.09-4.208-3.961-3.518-.7,6.511,1.217,7.571a2.083,2.083,0,0,0,2.372-.073,2.066,2.066,0,0,0,.56-.62Z" fill="#f7a9a0"/><path d="M89.439,201.438a.032.032,0,0,0-.019,0,.033.033,0,0,0-.013.015.03.03,0,0,0,0,.02.027.027,0,0,0,.013.014,5.283,5.283,0,0,1,2.205,3.668,1.151,1.151,0,0,0-1.657-.567c-.041.021-.014.084.026.082a1.284,1.284,0,0,1,1.331.653,6.166,6.166,0,0,1,.5,1.231c.047.136.288.1.261-.051l-.007-.035C92.387,204.663,91.358,201.914,89.439,201.438Z" fill="#263238"/><path d="M82.081,228.969c-3.622,20.549-.12,35.943,3.371,37.846,9.4,5.135,31.965-5.276,38.333-7.345,2.573-.835-9.156-20.512-11.783-19.3-6.188,2.859-14.862,7.712-15.209,7.676-.7-.072-1.512-5.316-5.1-20.6C88.784,214.88,83.562,220.568,82.081,228.969Z" fill="#f7a9a0"/><path d="M144.3,230.436c.644,2.58-5.857,3.629-5.857,3.629a4.91,4.91,0,0,1,2.576,2.126c.946,1.789-1.442,4.054-1.442,4.054a6.06,6.06,0,0,1,2.36,2.674c.733,1.8-1.351,4.434-1.351,4.434a5.3,5.3,0,0,1,.593,3.657c-.8,3.314-5.877,4.619-8.863,6.048-3.2,1.531-8.491,2.092-10.894,3.174l-10.4-19.052s10.052-10.641,15.788-12.292C129.994,227.972,143.318,226.491,144.3,230.436Z" fill="#f7a9a0"/><path d="M138.376,234.005a44.57,44.57,0,0,0-10.779,1.274.06.06,0,0,0-.039.027.062.062,0,0,0-.009.046.064.064,0,0,0,.027.039.058.058,0,0,0,.046.008c3.486-.759,7.258-.6,10.767-1.222a.086.086,0,0,0,.051-.033.094.094,0,0,0,.017-.058.091.091,0,0,0-.026-.056A.1.1,0,0,0,138.376,234.005Z" fill="#263238"/><path d="M139.424,240.006a9.322,9.322,0,0,0-2.427.451q-1.271.328-2.529.7-2.521.739-5,1.606c-.073.026-.052.144.026.121,1.676-.489,3.359-.953,5.054-1.37q1.272-.312,2.549-.607a11.311,11.311,0,0,0,2.38-.665.127.127,0,0,0,.066-.138.126.126,0,0,0-.041-.069A.123.123,0,0,0,139.424,240.006Z" fill="#263238"/><path d="M140.518,247.37a6.573,6.573,0,0,0-2.163.523q-1.142.36-2.287.71c-1.527.466-3.054.928-4.6,1.338-.078.021-.052.142.026.122,1.569-.41,3.144-.8,4.709-1.222q1.153-.311,2.3-.636a6.183,6.183,0,0,0,2.035-.759.061.061,0,0,0,.013-.022.043.043,0,0,0,0-.025.041.041,0,0,0-.014-.02A.05.05,0,0,0,140.518,247.37Z" fill="#263238"/><path d="M111.347,240.005l10.8,23.106s-33.532,9.782-38.082,3.9-4.231-24.4-2.1-37.2,7.9-13.052,10.42-1.478,4.009,18.885,4.463,18.821S111.347,240.005,111.347,240.005Z" fill="#ff6700"/><path d="M106.97,243.108c-.035-.058-.138-.029-.113.042.6,1.735,1.41,3.41,2.156,5.088.771,1.736,1.57,3.461,2.379,5.179,1.614,3.423,3.191,6.9,5,10.227.078.144.265.031.208-.113-1.388-3.495-3.035-6.908-4.623-10.316-.787-1.69-1.582-3.377-2.406-5.048C108.734,246.475,107.944,244.73,106.97,243.108Z" fill="#263238"/><path d="M104.431,267.356a14.514,14.514,0,0,0-2.807.466c-.968.172-1.94.326-2.914.453a55.07,55.07,0,0,1-5.693.488c-1.873.049-6.508-.229-7.933-1.522a8.963,8.963,0,0,1-2.424-4.174,61.006,61.006,0,0,1-1.15-6.585,85.6,85.6,0,0,1-.44-14.107c.053-1.31.134-2.619.23-3.927.1-1.329.254-2.667.3-4a.047.047,0,0,0-.012-.03.045.045,0,0,0-.029-.014.043.043,0,0,0-.031.007.05.05,0,0,0-.018.027,47.616,47.616,0,0,0-.888,6.457c-.078-1.351-.242-2.7-.264-4.052a.061.061,0,0,0-.061-.061.061.061,0,0,0-.061.061c.023,1.425-.072,2.847-.02,4.274.03.8.11,1.6.2,2.39q-.169,2.714-.145,5.435a55.842,55.842,0,0,0,1.661,14.185c.553,2.012,1.405,3.937,3.246,5.013a11.9,11.9,0,0,0,4.413,1.157,37.169,37.169,0,0,0,9.659-.612q1.337-.249,2.664-.555a10.519,10.519,0,0,0,2.541-.7C104.5,267.417,104.473,267.356,104.431,267.356Z" fill="#263238"/><path d="M111.3,239.568c-2.467,1.233-4.944,2.475-7.4,3.734-1.213.623-2.428,1.24-3.639,1.867-1.168.6-3.389,1.8-3.389,1.8-.027-.557-.453-2.17-.689-3.21-.257-1.135-.518-2.268-.808-3.394l-.233-.875c-.053-.545-.1-1.084-.152-1.626-.078-.872-.156-1.764-.289-2.63a.026.026,0,0,0-.007-.017.026.026,0,0,0-.017-.007.027.027,0,0,0-.017.007.026.026,0,0,0-.007.017,12.354,12.354,0,0,0,.015,2.5q-.566-2.044-1.167-4.078c-.013-.046-.078-.023-.07.021.441,2.288.909,4.574,1.433,6.847.255,1.1.537,2.195.823,3.288a35.255,35.255,0,0,0,.977,3.5,36.445,36.445,0,0,0,3.7-1.634q1.893-.9,3.765-1.84c2.425-1.214,4.869-2.45,7.211-3.819.055.12.115.237.181.351.063.1.143-.073.114-.178C111.576,240,111.352,239.541,111.3,239.568Z" fill="#263238"/><path d="M132.573,262.36h31.6l13.856-44.711h-31.6Z" fill="#263238"/><path d="M134.126,262.36h31.6l13.856-44.711h-31.6Z" fill="#455a64"/><path d="M160.173,238.6a4.28,4.28,0,0,1-3.883,3.073,2.288,2.288,0,0,1-2.263-3.073,4.28,4.28,0,0,1,3.884-3.073,2.287,2.287,0,0,1,2.262,3.073Z" fill="#fff"/><path d="M174.718,233.33c1.546,2.835,5.63,6.323,6.049,8.686a2.753,2.753,0,0,1-1.364,2.989s2.441,1.05,2.467,3.258c.014,1.136-1.789,2.156-1.789,2.156a3.284,3.284,0,0,1,1.821,2.892c-.077,1.564-1.872,2.352-1.872,2.352s1.426,1.748.835,3.317c-1.2,3.181-14.629,3.933-16.983-.9-1.1-2.251,2.195-2.256,2.195-2.256s-4.734-1.135-4.96-3.9,4.047-2.514,4.047-2.514-4.579-1.139-4.524-4.03c.058-3.008,4.292-2.022,4.292-2.022s-3.1-1.858-2.551-4.061c.906-3.637,7.633.685,10.545-.181Z" fill="#f7a9a0"/><path d="M179.763,255.829a.036.036,0,0,1,.027,0,.036.036,0,0,1,.016.022.035.035,0,0,1-.026.043,23.343,23.343,0,0,1-13.883-.052c-.143-.048-.125-.3.042-.276A47.763,47.763,0,0,0,179.763,255.829Z" fill="#263238"/><path d="M180.147,250.443c.052-.008.064.078.011.1a21.863,21.863,0,0,1-15.143-1c-.164-.078-.234-.312-.036-.239C168.281,250.6,175.841,251.055,180.147,250.443Z" fill="#263238"/><path d="M164.639,243.078c4.679,2.036,9.54,2.368,14.582,1.991.065-.005.065.089.012.107a19.7,19.7,0,0,1-8.171.476,13.462,13.462,0,0,1-6.5-2.412C164.491,243.185,164.539,243.034,164.639,243.078Z" fill="#263238"/><path d="M268.354,322.437c-.654,1.763-32.682,41.569-34.861,42.315-.826.288-6.895-4.039-14.085-9.474-1.552-1.173-3.147-2.393-4.761-3.644-10.484-8.1-21.419-16.936-21.419-16.936l21.347-26.689,20.831,17.672,4.576,3.875s19.08-9.757,21.56-10.318S269.008,320.672,268.354,322.437Z" fill="#f7a9a0"/><path d="M268.354,322.437c-.653,1.763-32.682,41.569-34.861,42.315-1.01.343-9.759-6.114-18.847-13.116l20.762-25.954,4.576,3.876s19.08-9.757,21.56-10.318S269.008,320.672,268.354,322.437Z" fill="#fff"/><path d="M268.354,322.437c-.654,1.763-32.682,41.569-34.861,42.315-.826.288-6.895-4.039-14.085-9.474l20.576-25.722s19.08-9.757,21.56-10.318S269.007,320.672,268.354,322.437Z" fill="#ff6700"/><path d="M266.3,321.726c-5.532,6.541-27.231,33.444-32.2,40.329-.041.056-.005.085.042.034,5.625-6.363,27.105-33.441,32.271-40.275C266.52,321.67,266.418,321.588,266.3,321.726Z" fill="#263238"/><path d="M258.05,320.647a6.875,6.875,0,0,0-1.582,5.3,6.667,6.667,0,0,0,2.363,4.357c.041.03.1-.042.065-.078a7.949,7.949,0,0,1-.762-9.512.07.07,0,0,0,.01-.019.05.05,0,0,0,0-.021.067.067,0,0,0-.006-.02.056.056,0,0,0-.013-.017.07.07,0,0,0-.019-.01.05.05,0,0,0-.021,0,.082.082,0,0,0-.021.006A.054.054,0,0,0,258.05,320.647Z" fill="#263238"/><path d="M242.729,327.5c-2.186,2.641-3.735,6.495-2.885,9.912.033.133.22.084.244-.028a47.4,47.4,0,0,1,3.007-9.666.215.215,0,0,0-.236-.292A.215.215,0,0,0,242.729,327.5Z" fill="#263238"/><path d="M245.192,326.086c-2.185,2.642-3.735,6.5-2.885,9.913.033.133.22.084.244-.029a47.338,47.338,0,0,1,3.007-9.664.215.215,0,0,0-.088-.268.218.218,0,0,0-.278.048Z" fill="#263238"/><path d="M247.655,324.672c-2.186,2.64-3.735,6.495-2.885,9.911.033.133.22.085.243-.028a47.391,47.391,0,0,1,3.008-9.665.215.215,0,0,0-.09-.265.217.217,0,0,0-.276.047Z" fill="#263238"/><path d="M250.118,323.257c-2.186,2.64-3.735,6.5-2.885,9.912.032.132.22.083.243-.029a47.393,47.393,0,0,1,3.008-9.665.218.218,0,0,0,.005-.149.222.222,0,0,0-.094-.117.216.216,0,0,0-.147-.027A.211.211,0,0,0,250.118,323.257Z" fill="#263238"/><path d="M229.128,355.257c-2.4,3,2.261,6.742,4.669,3.734S231.533,352.248,229.128,355.257Z" fill="#fff"/><path d="M237.924,318.883c-2.209.45-2.483,3.034-1.99,4.8a18,18,0,0,0,4.878,7.921.088.088,0,0,0,.077.025.079.079,0,0,0,.039-.016.092.092,0,0,0,.028-.031.418.418,0,0,0,.19.045.434.434,0,0,0,.19-.047.416.416,0,0,0,.221-.309c.216-2.957.811-6.1.112-9.034C241.259,320.53,240.013,318.457,237.924,318.883Zm3.041,7.843c-.07,1.458-.211,2.9-.227,4.363a53.969,53.969,0,0,1-2.748-4.688,19.286,19.286,0,0,1-1.016-2.425c-.416-1.29-.539-5.707,2.581-3.634C241.275,321.483,241.048,324.988,240.965,326.726Z" fill="#263238"/><path d="M236.462,339.04c2.229-2.039,3.5-4.97,4.98-7.54a.417.417,0,0,0,.039-.191.422.422,0,0,0-.051-.187.422.422,0,0,0-.314-.213.087.087,0,0,0-.005-.042.089.089,0,0,0-.023-.034.091.091,0,0,0-.037-.021.1.1,0,0,0-.041,0,17.976,17.976,0,0,0-8.482,3.819c-1.4,1.187-2.626,3.481-1.051,5.092C232.967,341.246,235.162,340.229,236.462,339.04Zm-2.817.389c-3.745-.037-1.167-3.623-.1-4.458a19.348,19.348,0,0,1,2.2-1.436,54.053,54.053,0,0,1,4.9-2.339c-.806,1.218-1.5,2.49-2.261,3.74-.9,1.486-2.683,4.513-4.748,4.493Z" fill="#263238"/><path d="M234.292,321.653l-22.216,29.969L137.11,299.613l-7.229-5.018s-2.047,1.377-5.129,3.081c-4.279,2.365-10.551,5.36-16.1,6.177-9.306,1.378-24.845,1.229-32.689-9.258-6.607-8.83-3.018-20.35-3.018-20.35l10.218-4.387s24.183-20.145,39.847-20.751c6.652-.265,16.341,4.777,25.312,10.043S234.292,321.653,234.292,321.653Z" fill="#37474f"/><path d="M129.881,294.6s-2.047,1.377-5.129,3.081c-5.447-6.519-16.979-18.36-17.329-18.78Z" fill="#263238"/><path d="M92.024,263.114c-1.446,1-2.844,2.07-4.27,3.1-1.4,1.011-2.851,1.966-4.185,3.072-1.355,1.125-2.641,2.326-3.919,3.538-.616.585-1.228,1.175-1.823,1.78a16.618,16.618,0,0,0-1.741,1.89c-.045.064.047.14.107.1a19.481,19.481,0,0,0,1.938-1.575c.677-.57,1.345-1.148,2.023-1.721,1.3-1.1,2.625-2.178,3.922-3.286s2.482-2.3,3.758-3.419c1.366-1.193,2.805-2.3,4.224-3.432C92.08,263.14,92.054,263.094,92.024,263.114Z" fill="#263238"/><path d="M229.076,320.578c-1.442,1.556-2.776,3.231-4.124,4.873s-2.69,3.3-4.021,4.967c-2.665,3.327-5.353,6.64-7.971,10-1.438,1.848-2.858,3.71-4.2,5.633-.061.086.078.182.146.107,2.866-3.152,5.485-6.513,8.144-9.838s5.318-6.671,7.931-10.042c1.431-1.844,2.905-3.679,4.219-5.607C229.258,320.594,229.139,320.511,229.076,320.578Z" fill="#263238"/><path d="M167.551,320.884c-3.729-2.939-7.6-5.713-11.464-8.469-3.848-2.743-7.693-5.493-11.6-8.153-1.121-.764-2.252-1.512-3.382-2.264s-2.3-1.44-3.406-2.218c-.064-.046-.122.061-.059.106,1.012.727,1.973,1.543,2.97,2.3.952.719,1.9,1.449,2.856,2.159,1.873,1.387,3.764,2.747,5.653,4.112q5.745,4.152,11.587,8.174c2.213,1.518,4.415,3.04,6.677,4.484C167.519,321.2,167.68,320.983,167.551,320.884Z" fill="#263238"/><path d="M191.526,289.963c-3.447-2.856-7.142-5.424-10.754-8.064-3.657-2.671-7.289-5.369-10.958-8.018L158.9,265.99c-3.528-2.55-7.039-5.141-10.765-7.4-2.039-1.235-4.131-2.381-6.281-3.412a41.081,41.081,0,0,0-6.491-2.651.062.062,0,0,0-.042.006.063.063,0,0,0-.029.031.063.063,0,0,0,0,.043.061.061,0,0,0,.027.032c1.837,1.026,3.766,1.889,5.625,2.879q2.756,1.467,5.427,3.087c3.7,2.243,7.192,4.788,10.7,7.313,7.288,5.239,14.56,10.5,21.9,15.668,4.106,2.891,8.129,5.944,12.394,8.6C191.495,290.27,191.648,290.065,191.526,289.963Z" fill="#263238"/><path d="M360.65,277.925c-9.511,12.877-19.427,27.821-21.841,43.97a.215.215,0,0,0,.419.077,96.1,96.1,0,0,1,4.2-12.93c6.252-1.72,12.389-3.133,15.673-9.336,3.346-6.379,2.922-14.693,2.286-21.641C361.348,277.7,360.843,277.677,360.65,277.925Z" fill="#60bb22"/><path d="M343.528,308.925c4.272-9.586,9.757-19.21,16.731-27.092.047-.053.12.024.077.078-4.563,5.614-8.032,11.727-11.419,17.948,3.148-3.2,6.6-6.06,9.582-9.449.059-.066.151.03.1.1-2.962,3.552-6.2,7.414-10.055,10.044q-1.556,2.864-3.137,5.737c.259-.144.527-.273.793-.4.047-.023.088.046.041.07-.294.15-.585.306-.889.435-.5.906-1,1.812-1.512,2.716C343.717,309.3,343.438,309.128,343.528,308.925Z" fill="#263238"/><path d="M346.706,305.58a56.271,56.271,0,0,0,7.3-4.873c.062-.051.156.036.089.089a38.5,38.5,0,0,1-7.285,4.962A.1.1,0,0,1,346.706,305.58Z" fill="#263238"/><path d="M337.709,319.494c.019.2.352.193.347-.016.049-5.318.005-10.658.085-16,1.362-2.75,4.287-4.271,6.321-6.474a28.281,28.281,0,0,0,3.793-5.282,37.909,37.909,0,0,0,4.4-14.669c.561-5.689-1.6-24.459-4-23.806-1.246.338-5.269,9.635-6.337,12.709a88.6,88.6,0,0,0-3.785,15.583C336.6,294.051,336.757,306.9,337.709,319.494Z" fill="#60bb22"/><path d="M337.67,296.555l.024-.02c.292-6.728,1.808-13.524,3.228-20.05,1.528-7.03,3.316-13.651,6.935-19.921.067-.117.239-.014.179.105a73.888,73.888,0,0,0-5.571,15.29c.243-.379.536-.738.789-1.1.1-.141.332-.01.233.137a9.779,9.779,0,0,1-1.13,1.6.107.107,0,0,1-.047.022c-1.245,5.025-2.14,10.165-2.906,15.292.059-.065.113-.135.171-.2a.05.05,0,0,1,.064,0,.053.053,0,0,1,.018.029.049.049,0,0,1,0,.034c-.094.171-.2.34-.305.509-.385,2.6-.743,5.2-1.1,7.775,4.636-3.961,8.593-8.629,10.826-14.382.011-.027.054-.015.044.012-2.187,5.967-5.635,11.271-10.944,14.891q-.144,1.041-.292,2.078c-.02.143-.249.105-.248-.034,0-.612.031-1.227.055-1.842a.144.144,0,0,1-.063-.108.149.149,0,0,1,.01-.063A.134.134,0,0,1,337.67,296.555Z" fill="#263238"/><path d="M339.855,286.8a107.381,107.381,0,0,0,9.441-16.26c.029-.065.142-.019.116.048a52.743,52.743,0,0,1-9.381,16.349.114.114,0,0,1-.072.032.115.115,0,0,1-.117-.091A.111.111,0,0,1,339.855,286.8Z" fill="#263238"/><path d="M344.56,269.238c1.468-2.6,3.015-5.121,4.4-7.768.039-.077.14-.008.109.064a40.365,40.365,0,0,1-4.28,7.837A.131.131,0,0,1,344.56,269.238Z" fill="#263238"/><path d="M343.988,270.367a.029.029,0,0,1,.014.008.03.03,0,0,1,0,.015.025.025,0,0,1,0,.015.029.029,0,0,1-.014.008.022.022,0,0,1-.019-.023.03.03,0,0,1,.005-.015A.025.025,0,0,1,343.988,270.367Z" fill="#263238"/><path d="M334.109,304.115a54.159,54.159,0,0,1-1.245,10.477l.165,1.147a49.9,49.9,0,0,0,1.873-11.678.355.355,0,0,0,.058-.179.363.363,0,0,0-.04-.183v-.012a77.406,77.406,0,0,0-1.175-15.823c-1.647-9.773-5.246-19.152-12.061-26.478a.48.48,0,0,0-.195-.1.5.5,0,0,0-.22-.005.477.477,0,0,0-.2.092.468.468,0,0,0-.139.17c-2.751,6.993-1.79,15.337.552,22.315a40.84,40.84,0,0,0,5.406,10.6C329.227,297.744,332.208,300.523,334.109,304.115Z" fill="#60bb22"/><path d="M322.489,264.658c6.459,10.484,10.956,22.914,11.506,35.3.01.22-.36.278-.389.053q-.232-1.668-.5-3.313a.011.011,0,0,1-.011-.005,42.28,42.28,0,0,1-7.331-8.458c-.034-.056.048-.122.091-.072a88.965,88.965,0,0,0,7.122,7.75c-.467-2.739-1.012-5.433-1.66-8.091-.173-.2-.341-.4-.511-.6-.112-.131.078-.323.191-.192.052.058.1.116.156.172a93.65,93.65,0,0,0-3.38-10.715c-1.645-1.962-3.484-3.657-4.682-6.02a.05.05,0,0,1,0-.036.045.045,0,0,1,.022-.027.044.044,0,0,1,.035-.006.046.046,0,0,1,.03.019c.964,1.352,1.9,2.711,2.989,3.968.435.5.913.966,1.365,1.454a82.7,82.7,0,0,0-5.291-11.023.147.147,0,0,1-.018-.112.146.146,0,0,1,.066-.091.152.152,0,0,1,.112-.018A.15.15,0,0,1,322.489,264.658Z" fill="#263238"/><path d="M323.8,277.592c2.088,2.81,4.468,5.491,6.409,8.395.056.084-.066.169-.135.1a42.851,42.851,0,0,1-6.415-8.417C323.6,277.584,323.735,277.51,323.8,277.592Z" fill="#263238"/><path d="M330.5,286.638l.089.089a.066.066,0,0,1,.018.048.067.067,0,0,1-.066.067.071.071,0,0,1-.048-.019l-.089-.089a.067.067,0,0,1-.02-.048.066.066,0,0,1,.02-.048.068.068,0,0,1,.1,0Z" fill="#263238"/><path d="M312.365,284.814a32.165,32.165,0,0,0,6.818,15.992,16.969,16.969,0,0,0,5.529,4.314c2.395,1.185,4.9,2.548,7.379,3.521a48.438,48.438,0,0,1,2.612,9.277c.078-.269.156-.551.24-.821-1.591-13.656-10.427-25.328-21.735-32.821a.547.547,0,0,0-.3-.089.561.561,0,0,0-.3.086.552.552,0,0,0-.248.541Z" fill="#60bb22"/><path d="M316.272,288.848c-.078-.071.028-.213.115-.148a46.24,46.24,0,0,1,14.406,17.749c.078.187-.175.35-.281.164-.525-.92-1.061-1.816-1.607-2.7H328.9c-2.58-.486-5.024-2.3-6.94-4.025-.052-.046.025-.123.078-.078a15.8,15.8,0,0,0,3.268,2.292c1.052.535,2.185.871,3.28,1.3-.956-1.518-1.954-2.973-2.993-4.385a30.05,30.05,0,0,1-7.755-4.357c-.078-.054-.01-.174.072-.125a77.572,77.572,0,0,0,7.208,3.853,64.57,64.57,0,0,0-5.089-5.932c-.877-.467-1.767-.929-2.616-1.424-.07-.04-.024-.159.055-.132a9.356,9.356,0,0,1,2.008.986C318.449,290.859,317.4,289.842,316.272,288.848Z" fill="#263238"/><path d="M316.513,293.564a3.1,3.1,0,0,1,.435.311c.042.037-.011.09-.054.071a3.256,3.256,0,0,1-.453-.256C316.363,293.637,316.435,293.513,316.513,293.564Z" fill="#263238"/><path d="M352.588,347.491H321.607l2.5-28.206.55-6.224h24.88l.549,6.224Z" fill="#455a64"/><path d="M350.087,319.285H324.108l.55-6.224h24.88Z" fill="#263238"/><path d="M351.021,308.716H323.177v6.156h27.844Z" fill="#455a64"/></svg>