<svg width="23" height="24" viewBox="0 0 23 24" fill="none" xmlns="http://www.w3.org/2000/svg">
<g clip-path="url(#clip0_1971_5689)">
<path d="M8.04107 17.9438C7.23458 17.9438 6.46132 18.2619 5.89094 18.8279C5.32078 19.394 5.00049 20.162 5.00049 20.9624C5.00049 21.7632 5.32081 22.5309 5.89094 23.0972C6.46132 23.6633 7.23463 23.9813 8.04107 23.9813C8.84734 23.9813 9.62082 23.6632 10.191 23.0972C10.7611 22.5309 11.0814 21.7631 11.0814 20.9624C11.0808 20.1622 10.76 19.3948 10.1901 18.8288C9.61993 18.2629 8.84706 17.9447 8.04101 17.9438L8.04107 17.9438ZM8.04107 22.118V22.1178C7.73232 22.1178 7.43645 21.9961 7.21826 21.7794C7.00008 21.5628 6.87743 21.269 6.87743 20.9625C6.87743 20.6562 7.00006 20.3625 7.21826 20.1456C7.43646 19.929 7.73234 19.8072 8.04107 19.8072C8.3496 19.8072 8.64569 19.929 8.86387 20.1456C9.08207 20.3625 9.2047 20.6562 9.2047 20.9625C9.20383 21.2684 9.08076 21.5615 8.86278 21.7775C8.64459 21.9935 8.34914 22.1148 8.04104 22.1148L8.04107 22.118Z" fill="white"/>
<path d="M17.851 17.9439C17.0445 17.9439 16.271 18.2621 15.7006 18.8284C15.1305 19.3947 14.8103 20.1628 14.8105 20.9636C14.8108 21.7644 15.1315 22.5322 15.7021 23.0983C16.2727 23.6641 17.0464 23.9818 17.8531 23.9813C18.6596 23.9807 19.4331 23.662 20.0028 23.0952C20.5728 22.5285 20.8924 21.7603 20.8915 20.9594C20.8898 20.1596 20.5688 19.3931 19.9989 18.8277C19.429 18.2625 18.6566 17.9446 17.851 17.9437V17.9439ZM17.851 22.1181V22.1178C17.5426 22.1178 17.2468 21.9963 17.0285 21.7799C16.8103 21.5635 16.6877 21.2699 16.6873 20.9636C16.6871 20.6575 16.8093 20.3635 17.027 20.1467C17.245 19.93 17.5404 19.8078 17.849 19.8072C18.1573 19.8067 18.4534 19.9279 18.672 20.1438C18.8906 20.3598 19.0139 20.6532 19.0146 20.9595C19.0146 21.2658 18.8922 21.5598 18.6738 21.7764C18.4556 21.993 18.1597 22.1148 17.8509 22.1148L17.851 22.1181Z" fill="white"/>
<path d="M22.0521 6.11716H10.6155C10.2803 6.11716 9.97048 6.2948 9.8029 6.58314C9.63511 6.87127 9.63511 7.22658 9.8029 7.51469C9.97048 7.80304 10.2803 7.98068 10.6155 7.98068H20.8723L19.2051 15.161H8.10975L5.46035 1.99884C5.42675 1.83853 5.35126 1.6897 5.2415 1.56773C5.13152 1.44555 4.99122 1.35434 4.83455 1.303L1.25611 0.0608275C0.939713 -0.0500911 0.587974 0.0149003 0.333145 0.23132C0.0780696 0.447739 -0.0410673 0.782879 0.0202437 1.11024C0.0815603 1.43779 0.314157 1.7077 0.63056 1.81862L3.70237 2.88383L6.39885 16.2722L6.39864 16.2725C6.4414 16.4835 6.55618 16.6732 6.72397 16.8097C6.89155 16.9462 7.10167 17.0209 7.31837 17.0209H19.9526C20.1649 17.0207 20.3707 16.949 20.5367 16.8175C20.7025 16.686 20.8186 16.5028 20.866 16.2974L22.9681 7.25641C23.0318 6.97998 22.9655 6.68989 22.7877 6.46805C22.61 6.24622 22.3401 6.11689 22.0547 6.11645L22.0521 6.11716Z" fill="white"/>
</g>
<defs>
<clipPath id="clip0_1971_5689">
<rect width="23" height="24" fill="white"/>
</clipPath>
</defs>
</svg>
