<svg width="20" height="26" viewBox="0 0 20 26" fill="none" xmlns="http://www.w3.org/2000/svg">
<path d="M18.3758 10.7336C19.3324 10.1726 19.9862 9.08055 20 7.82394C20 7.81646 20 7.8015 20 7.79402V7.78654C20 7.77158 20 7.7641 20 7.74914C20 7.74166 20 7.73418 20 7.7267C20 7.71922 20 7.70426 19.9931 7.69678C19.9931 7.6893 19.9931 7.68182 19.9862 7.66686C19.9862 7.65938 19.9794 7.6519 19.9794 7.64442C19.9794 7.63694 19.9725 7.62198 19.9725 7.6145C19.9725 7.60702 19.9656 7.59954 19.9656 7.59206C19.9587 7.5771 19.9587 7.56962 19.9518 7.56214V7.55466L18.0661 3.21634V1.74281C18.0661 0.785386 17.3503 0 16.4625 0H3.51686C2.63593 0 1.91328 0.777906 1.91328 1.74281V3.25374L0.0481765 7.55466V7.56214C0.0412942 7.56962 0.0412939 7.58458 0.0344116 7.59206C0.0344116 7.59954 0.0275294 7.60702 0.0275294 7.6145C0.0275294 7.62198 0.0206471 7.63694 0.0206471 7.64442C0.0206471 7.6519 0.0137649 7.65938 0.0137649 7.66686C0.0137649 7.67434 0.013765 7.68182 0.00688273 7.69678C0.00688273 7.70426 0.00688231 7.71922 0 7.7267C0 7.73418 0 7.74166 0 7.74914C0 7.7641 0 7.77158 0 7.78654V7.79402C0 7.8015 0 7.81646 0 7.82394C0.0137646 9.08055 0.667585 10.1726 1.62423 10.7336V23.3895C1.62423 24.8257 2.51204 26 3.59945 26H16.4074C17.4948 26 18.3827 24.8257 18.3827 23.3895V10.7336H18.3758ZM16.9305 10.0081C16.1597 10.0081 15.4508 9.52934 15.1067 8.78884L15.0172 8.35501H18.9057C18.6717 9.30495 17.8734 10.0081 16.9305 10.0081ZM6.04267 8.34753H9.48383V8.8412C9.13283 9.55178 8.43771 10.0081 7.68754 10.0081C6.95802 10.0081 6.28355 9.5817 5.92567 8.90104L6.04267 8.34753ZM2.77357 3.89701H5.92567L5.21679 7.22555H1.32829L2.77357 3.89701ZM6.98555 3.89701H9.48383V7.22555H6.28355L6.98555 3.89701ZM13.0145 3.89701L13.7233 7.22555H10.5231V3.89701H13.0145ZM18.6717 7.22555H14.7832L14.0743 3.89701H17.2264L18.6717 7.22555ZM10.5162 8.34753H13.9573L14.0743 8.90104C13.7096 9.57422 13.0351 10.0081 12.3125 10.0081C11.5623 10.0081 10.8741 9.55178 10.5162 8.8412V8.34753V8.34753ZM2.94563 1.74281C2.94563 1.40621 3.20028 1.12198 3.51686 1.12198H16.4694C16.7791 1.12198 17.0406 1.39873 17.0406 1.74281V2.78251H2.94563V1.74281ZM1.10117 8.34753H4.98968L4.90021 8.78136C4.55609 9.52187 3.84721 10.0006 3.07639 10.0006C2.12663 10.0081 1.32829 9.30495 1.10117 8.34753ZM3.06951 11.13C3.96421 11.13 4.80385 10.7037 5.38197 9.9931C5.96008 10.7037 6.79972 11.13 7.69443 11.13C8.58913 11.13 9.42877 10.7037 10.0069 9.9931C10.585 10.7037 11.4246 11.13 12.3193 11.13C13.214 11.13 14.0537 10.7037 14.6318 9.9931C15.2099 10.7037 16.0496 11.13 16.9443 11.13C17.0888 11.13 17.2264 11.1151 17.3641 11.1001V21.4373H2.65657V11.1001C2.78734 11.1151 2.93187 11.13 3.06951 11.13ZM16.4074 24.878H3.59257C3.08328 24.878 2.64969 24.1974 2.64969 23.3895V22.5593H17.3434V23.3895C17.3434 24.1974 16.9167 24.878 16.4074 24.878Z" fill="white"/>
<path d="M10.0005 23.008C9.8629 23.008 9.73214 23.0679 9.63579 23.1726C9.53943 23.2773 9.48438 23.4194 9.48438 23.569C9.48438 23.7186 9.53943 23.8608 9.63579 23.9655C9.73214 24.0702 9.8629 24.13 10.0005 24.13C10.1382 24.13 10.269 24.0702 10.3653 23.9655C10.4617 23.8608 10.5167 23.7186 10.5167 23.569C10.5167 23.4194 10.4617 23.2773 10.3653 23.1726C10.269 23.0679 10.1382 23.008 10.0005 23.008Z" fill="#444444"/>
</svg>
